# xmcd
#
# Track frame offsets:
# 150
# 15213
# 30963
# 46169
# 60573
# 79131
# 94805
# 108602
# 125606
# 146341
# 163138
# 177638
# 195032
# 209211
#
# Disc length: 2969 seconds
#
#
# Revision: 0
# Processed by: cddbd v1.5PL3 Copyright (c) Steve Scherf et al.
# Submitted via: FreeRIP 2.53 
#
DISCID=b70b970e
DTITLE=Norah Jones - Feels Like Home
DYEAR=2004
DGENRE=Jazz
TTITLE0=Sunrise
TTITLE1=What Am I To You
TTITLE2=Those Sweet Words
TTITLE3=Carnival Town
TTITLE4=In The Morning
TTITLE5=Be Here To Love Me
TTITLE6=Creepi'n In
TTITLE7=Toes
TTITLE8=Humble Me
TTITLE9=Above Ground
TTITLE10=The Long Way Home
TTITLE11=The Prettiest Thing
TTITLE12=Don't Miss You At All
TTITLE13=Nearness Of You
EXTD=
EXTT0=
EXTT1=
EXTT2=
EXTT3=
EXTT4=
EXTT5=
EXTT6=
EXTT7=
EXTT8=
EXTT9=
EXTT10=
EXTT11=
EXTT12=
EXTT13=
PLAYORDER=
